<svg width="234" height="246" viewBox="0 0 234 246" fill="none" xmlns="http://www.w3.org/2000/svg">
<g clip-path="url(#clip0_354_4662)">
<path fill-rule="evenodd" clip-rule="evenodd" d="M194.28 133.79L188.71 124.18L117 0L0 202.63H2.58C32.47 202.63 62.36 202.66 92.24 202.66L117 245.48L141.73 202.66V202.63C171.61 202.63 201.54 202.59 231.42 202.59H234L194.28 133.79ZM70.73 161.27L117 81.18L147.38 133.79L163.27 161.27H70.73Z" fill="#FA3FD1"/>
<path fill-rule="evenodd" clip-rule="evenodd" d="M141.73 202.66L117.01 245.47V242.48L140.24 200.15C170.13 200.15 201.55 201.08 231.43 201.08L234.01 202.58H231.43C201.54 202.58 171.62 202.62 141.73 202.62V202.66ZM92.21 202.66C62.32 202.66 32.48 202.62 2.59 202.62H0L2.58 201.13C32.35 201.13 60.97 200.2 90.74 200.2L93.1 201.21L92.16 202.71L92.2 202.67L92.21 202.66ZM116.97 81.25L70.74 161.31L68.16 162.81L117.01 78.19V81.26H116.97V81.25Z" fill="#00EEFF"/>
<path d="M193.42 135.36L117.04 3.03003L2.62012 201.13C32.6901 201.13 62.9501 201.21 93.1401 201.21L117.04 242.52L140.9 201.21C171.08 201.21 201.36 201.13 231.42 201.13L193.42 135.36ZM68.1501 162.84L117 78.22L149.99 135.36L165.89 162.84H68.1501Z" fill="white"/>
</g>
<defs>
<clipPath id="clip0_354_4662">
<rect width="234" height="245.48" fill="white"/>
</clipPath>
</defs>
</svg>
